<svg width="24" height="24" viewBox="0 0 24 24" xmlns="http://www.w3.org/2000/svg">
  <path fill="currentColor" d="M21.143 9.667c-.733-1.392-1.914-3.05-3.617-4.753C14.549 1.936 12.048 1 10.143 1c-2.55 0-4.739 1.19-5.805 3.053-.952 1.681-1.022 3.934-.186 5.96.752 1.826 2.272 3.464 4.508 4.861 1.23.761 2.57 1.371 3.99 1.814-.649 2.034-1.844 3.705-3.466 4.865-1.596 1.147-3.308 1.662-4.946 1.449-1.226-.158-2.135-.701-2.772-1.653-.212-.32-.608-.419-.925-.211-.318.21-.415.604-.207.922.892 1.333 2.166 2.118 3.759 2.323.435.056.871.083 1.301.083 1.907 0 3.689-.604 5.307-1.787 2.038-1.488 3.527-3.656 4.321-6.303 1.595-.569 3.067-1.284 4.39-2.13 2.157-1.377 3.616-2.918 4.329-4.581.708-1.653.395-3.368-.88-4.786zM12.75 15.662c-1.267-.424-2.467-.984-3.566-1.663-1.965-1.215-3.239-2.62-3.813-4.194-.519-1.426-.396-3.006.38-4.313C6.599 3.947 8.239 3 10.143 3c1.432 0 3.532.751 5.958 3.177 1.448 1.448 2.452 2.845 3.064 3.981.303.563.45 1.112.439 1.63-.013.562-.203 1.041-.563 1.428-1.052 1.128-3.083 2.106-5.723 2.785-.475.12-.962.226-1.458.319-.204-.964-.425-1.775-.663-2.415-.259-.693-.565-1.24-.917-1.638-.361-.408-.785-.676-1.258-.801-.474-.125-.941-.12-1.382.015-.504.152-.918.46-1.254.882-.337.422-.576.943-.713 1.555-.134.598-.164 1.276-.09 2.016.08.784.242 1.633.486 2.528.278 1.024.642 2.121 1.085 3.271.445 1.169.952 2.344 1.509 3.495.127.261.429.366.691.24.262-.126.367-.427.24-.69-.541-1.112-1.031-2.247-1.463-3.376-.432-1.114-.783-2.175-1.049-3.163-.221-.828-.37-1.612-.442-2.333-.064-.633-.038-1.203.078-1.693.106-.474.286-.87.533-1.177.249-.309.526-.512.824-.605.272-.081.579-.084.889-.008.31.082.581.252.812.51.231.259.456.682.67 1.258.209.565.406 1.285.59 2.149.185.865.335 1.848.45 2.946.097.921.152 1.882.164 2.871.01.813-.01 1.632-.061 2.447-.02.326.228.609.555.629.329.02.612-.227.633-.555.053-.852.074-1.708.064-2.557-.012-1.026-.069-2.024-.169-2.982.507-.086 1-.186 1.477-.299 2.962-.747 5.208-1.861 6.454-3.206.564-.607.844-1.336.863-2.159.018-.814-.188-1.607-.552-2.292-.704-1.325-1.811-2.867-3.372-4.427C14.157 3.801 11.81 3 10.143 3c-2.353 0-4.358 1.155-5.558 3.215-.878 1.552-1.022 3.39-.404 5.178.651 1.873 2.077 3.461 4.255 4.816 1.146.714 2.394 1.303 3.711 1.751.066.607.158 1.228.274 1.863.121.659.27 1.328.446 2.005.058.22.28.357.501.3.221-.058.358-.279.3-.5-.171-.656-.316-1.304-.434-1.941-.11-.593-.199-1.173-.263-1.74z"/>
</svg>